<?xml version="1.0" encoding="UTF-8" standalone="no"?>
<!-- Generator: Adobe Illustrator 16.0.0, SVG Export Plug-In . SVG Version: 6.00 Build 0)  -->

<svg
   version="1.1"
   id="svg2"
   x="0px"
   y="0px"
   width="544.813px"
   height="350.066px"
   viewBox="0 0 544.813 350.066"
   enable-background="new 0 0 544.813 350.066"
   xml:space="preserve"
   sodipodi:docname="logo-red.svg"
   inkscape:version="1.3.2 (091e20e, 2023-11-25)"
   xmlns:inkscape="http://www.inkscape.org/namespaces/inkscape"
   xmlns:sodipodi="http://sodipodi.sourceforge.net/DTD/sodipodi-0.dtd"
   xmlns="http://www.w3.org/2000/svg"
   xmlns:svg="http://www.w3.org/2000/svg"><defs
   id="defs1" /><sodipodi:namedview
   id="namedview1"
   pagecolor="#ffffff"
   bordercolor="#000000"
   borderopacity="0.25"
   inkscape:showpageshadow="2"
   inkscape:pageopacity="0.0"
   inkscape:pagecheckerboard="0"
   inkscape:deskcolor="#d1d1d1"
   inkscape:zoom="0.67415857"
   inkscape:cx="292.95778"
   inkscape:cy="186.89965"
   inkscape:window-width="1312"
   inkscape:window-height="449"
   inkscape:window-x="0"
   inkscape:window-y="38"
   inkscape:window-maximized="0"
   inkscape:current-layer="svg2" />
<g
   id="g10"
   transform="matrix(1.3333333,0,0,-1.3333333,-1.4833305,348.58334)">
	<g
   id="g12"
   transform="scale(0.1)">
		<path
   id="path14"
   fill="#ff6666"
   d="m 195.205,2192.198 h 312.648 c 75.385,0 104.744,21.431 104.744,103.162 v 77.761 c 0,81.738 -29.359,103.162 -104.744,103.162 H 195.205 Z M 19.046,2619.112 H 550.7 c 176.162,0 238.06,-57.92 238.06,-199.958 v -174.58 c 0,-142.046 -61.897,-199.966 -238.06,-199.966 H 19.046 v 574.504" />
		<path
   id="path16"
   fill="#ff6666"
   d="m 1127.068,2269.959 h 225.363 l -114.272,215.845 z m -3.167,349.153 h 229.328 l 315.81,-574.504 H 1473.05 l -54.759,101.572 h -357.082 l -51.58,-101.572 H 812.842 l 311.059,574.504" />
		<path
   id="path18"
   fill="#ff6666"
   d="m 1732.002,2619.112 h 272.966 l 330.905,-417.393 h 1.582 v 417.393 h 176.154 V 2044.608 H 2240.643 L 1909.749,2462 h -1.589 v -417.392 h -176.158 v 574.504" />
		<path
   id="path20"
   fill="#ff6666"
   d="m 2599.984,2417.557 c 0,168.23 94.424,207.906 253.125,207.906 h 207.114 c 250.752,0 283.286,-53.965 281.689,-216.629 h -176.147 v 15.864 c 0,41.265 -30.161,53.174 -82.529,53.174 h -192.041 c -92.835,0 -110.288,-43.652 -110.288,-115.071 v -61.89 c 0,-83.32 17.453,-115.063 100.773,-115.063 h 188.064 c 79.351,0 103.154,7.939 103.154,79.351 h 176.162 v -53.958 c 0,-96.797 -34.907,-172.983 -211.86,-172.983 h -284.092 c -158.701,0 -253.125,39.675 -253.125,207.905 v 171.394" />
		<path
   id="path22"
   fill="#ff6666"
   d="m 3431.62,2619.112 h 628.477 v -133.308 h -452.314 v -92.051 h 428.511 v -119.026 h -428.511 v -92.043 h 462.627 v -138.076 h -638.79 v 574.504" />
		<path
   id="path24"
   fill="#ff6666"
   d="m -0.001,1749.053 c 0,168.23 94.432,207.898 253.137,207.898 h 245.717 c 250.748,0 283.286,-53.95 281.696,-216.629 H 604.391 v 15.879 c 0,41.257 -30.157,53.159 -82.525,53.159 H 291.222 c -92.838,0 -110.299,-43.652 -110.299,-115.063 v -61.89 c 0,-83.32 17.461,-115.071 100.773,-115.071 h 226.678 c 79.354,0 103.157,7.947 103.157,79.365 H 787.69 v -53.965 c 0,-96.804 -34.915,-172.983 -211.868,-172.983 H 253.136 c -158.705,-0.01 -253.137,39.675 -253.137,207.898 v 171.402" />
		<path
   id="path26"
   fill="#ff6666"
   d="m 1056.848,1632.408 c 0,-83.32 17.461,-115.071 100.781,-115.071 h 225.359 c 83.32,0 100.781,31.75 100.781,115.071 v 61.89 c 0,71.411 -17.461,115.063 -110.3,115.063 H 1167.15 c -92.842,0 -110.303,-43.652 -110.303,-115.063 v -61.89 z m -180.919,116.645 c 0,168.23 94.431,207.898 253.132,207.898 h 282.488 c 158.712,0 253.14,-39.668 253.14,-207.898 v -171.401 c 0,-168.223 -94.428,-207.905 -253.14,-207.905 h -282.488 c -158.701,0 -253.132,39.683 -253.132,207.905 v 171.401" />
		<path
   id="path28"
   fill="#ff6666"
   d="m 1927.222,1668.113 h 291.215 c 47.614,0 65.068,19.05 65.068,60.308 v 19.043 c 0,50.786 -25.386,60.308 -80.933,60.308 h -275.351 v -139.659 z m -176.162,282.496 h 531.661 c 135.688,0 172.186,-67.449 172.186,-170.61 v -36.497 c 0,-76.97 -17.461,-122.205 -98.394,-141.255 v -1.589 c 52.383,-9.514 96.021,-32.527 96.021,-126.958 v -97.603 h -176.162 v 69.045 c 0,60.3 -17.461,80.142 -72.217,80.142 H 1927.222 V 1376.097 H 1751.06 v 574.512" />
		<path
   id="path30"
   fill="#ff6666"
   d="m 2546.591,1950.609 h 176.162 v -211.077 h 82.529 l 222.173,211.077 h 239.648 l -311.06,-280.906 347.563,-293.606 h -249.17 l -253.931,220.605 h -77.754 v -220.605 h -176.162 v 574.512" />
		<path
   id="path32"
   fill="#ff6666"
   d="M 19.046,1249.373 H 787.69 v -63.486 H 96.808 V 1002.591 H 724.977 V 939.105 H 96.808 V 674.861 H 19.046 v 574.512" />
		<path
   id="path34"
   fill="#ff6666"
   d="m 925.909,1249.373 h 77.772 V 674.861 h -77.772 v 574.512" />
		<path
   id="path36"
   fill="#ff6666"
   d="m 1613.869,965.289 c 86.499,0 122.999,23.013 122.999,83.32 v 52.368 c 0,64.27 -27.776,84.91 -142.038,84.91 H 1240.92 V 965.289 Z m -450.71,284.084 h 459.44 c 165.85,0 192.03,-54.763 192.03,-162.671 v -46.824 c 0,-80.94 -46.021,-103.162 -105.538,-108.706 v -1.597 c 79.357,-14.275 98.396,-55.547 98.396,-107.915 V 674.861 h -72.996 v 126.167 c 0,89.67 -43.652,100.781 -114.272,100.781 h -379.3 V 674.861 h -77.761 v 574.512" />
		<path
   id="path38"
   fill="#ff6666"
   d="m 1965.919,1249.373 h 77.761 v -243.611 h 97.604 l 360.256,243.611 h 126.966 l 1.582,-1.589 -411.841,-274.563 449.143,-296.77 -1.589,-1.589 H 2529.32 l -394.38,267.422 h -91.261 V 674.861 h -77.761 v 574.512" />
		<path
   id="path40"
   fill="#ff6666"
   d="m 2782.006,1249.373 h 77.769 V 674.861 h -77.769 v 574.512" />
		<path
   id="path42"
   fill="#ff6666"
   d="m 3019.252,1249.373 h 115.847 L 3661.205,744.69 v 504.683 h 77.769 V 674.861 H 3623.12 l -526.113,504.683 V 674.861 h -77.754 v 574.512" />
		<path
   id="path44"
   fill="#ff6666"
   d="m -0.001,372.159 c 0,145.217 49.201,215.054 204.728,215.054 h 396.994 c 141.248,0 180.132,-65.859 180.132,-142.844 V 395.18 H 713.61 v 26.184 c 0,97.61 -60.308,102.356 -131.723,102.356 H 212.666 C 138.068,523.72 77.765,501.513 77.765,401.53 V 185.691 c 0,-99.99 60.304,-122.205 134.901,-122.205 h 371.602 c 104.739,0 134.897,22.214 134.897,99.983 v 35.713 h 73.004 V 160.305 C 792.169,56.338 758.84,0 597.755,0 H 204.727 C 49.2,0 -0.001,69.829 -0.001,215.054 v 157.105" />
		<path
   id="path46"
   fill="#ff6666"
   d="m 1417.789,296.785 c 86.503,0 122.999,23.005 122.999,83.32 v 52.361 c 0,64.285 -27.78,84.91 -142.038,84.91 H 1044.84 V 296.785 Z M 967.075,580.862 h 459.444 c 165.85,0 192.03,-54.756 192.03,-162.671 v -46.816 c 0,-80.94 -46.019,-103.154 -105.542,-108.713 v -1.589 c 79.361,-14.282 98.4,-55.54 98.4,-107.922 V 6.35 h -73 v 126.182 c 0,89.663 -43.649,100.774 -114.27,100.774 H 1044.84 V 6.35 h -77.765 v 574.512" />
		<path
   id="path48"
   fill="#ff6666"
   d="M 2123.588,517.376 1930.759,191.243 h 385.646 z m -48.414,63.486 h 96.813 L 2513.199,6.35 h -88.073 l -71.411,121.414 H 1893.472 L 1822.049,6.35 h -88.077 l 341.202,574.512" />
		<path
   id="path50"
   fill="#ff6666"
   d="m 2637.982,580.862 h 115.847 L 3279.936,76.18 v 504.683 h 77.769 V 6.35 H 3241.836 L 2715.737,511.033 V 6.35 h -77.754 v 574.512" />
		<path
   id="path52"
   fill="#ff6666"
   d="m 3518.734,580.862 h 564.185 V 517.376 H 3596.503 V 334.087 h 467.373 V 270.593 H 3596.503 V 69.829 h 489.595 V 6.35 h -567.363 v 574.512" />
	</g>
</g>
</svg>
